<svg width="14" height="17" viewBox="0 0 14 17" fill="none" xmlns="http://www.w3.org/2000/svg">
<path d="M2.03186 0.814697H1.15295V12.1272H0.274048V14.9397H1.15295V16.8147H2.03186V14.9397H2.91077V12.1272H2.03186V0.814697ZM2.03186 14.0022H1.15295V13.0647H2.03186V14.0022Z" fill="#BC002D"/>
<path d="M12.3971 0.814697H11.5182V7.7522H10.6393V10.5647H11.5182V16.8147H12.3971V10.5647H13.276V7.7522H12.3971V0.814697ZM12.3971 9.6272H11.5182V8.6897H12.3971V9.6272Z" fill="#BC002D"/>
<path d="M7.21448 0.814697H6.33557V2.49132H5.45667V5.30382H6.33557V16.8147H7.21448V5.30382H8.09338V2.49132H7.21448V0.814697ZM7.21448 4.36632H6.33557V3.42882H7.21448V4.36632Z" fill="#BC002D"/>
</svg>
